<svg xmlns="http://www.w3.org/2000/svg" version="1.1" xmlns:xlink="http://www.w3.org/1999/xlink" xmlns:svgjs="http://svgjs.dev/svgjs" width="128" height="128" viewBox="0 0 128 128"><g transform="matrix(0.34797297297297297,0,0,0.34797297297297297,41.653514975978275,12.33387096774193)"><svg viewBox="0 0 67 155" data-background-color="#327348" preserveAspectRatio="xMidYMid meet" height="296" width="128" xmlns="http://www.w3.org/2000/svg" xmlns:xlink="http://www.w3.org/1999/xlink"><g id="tight-bounds" transform="matrix(1,0,0,1,0.11464585834335139,0.25)"><svg viewBox="0 0 66.77070828331331 154.5" height="154.5" width="66.77070828331331"><g><svg viewBox="0 0 66.77070828331331 154.5" height="154.5" width="66.77070828331331"><g><svg viewBox="0 0 66.77070828331331 154.5" height="154.5" width="66.77070828331331"><g id="textblocktransform"><svg viewBox="0 0 66.77070828331331 154.5" height="154.5" width="66.77070828331331" id="textblock"><g><svg viewBox="0 0 66.77070828331331 154.5" height="154.5" width="66.77070828331331"><g transform="matrix(1,0,0,1,0,0)"><svg width="66.77070828331331" viewBox="1.3 -33 18 41.65" height="154.5" data-palette-color="#8abe53"><path d="M2.9 8.65L2.9 8.65Q2.2 8.65 1.75 8.33 1.3 8 1.3 7.2L1.3 7.2Q1.3 6.75 1.48 5.88 1.65 5 1.95 3.5L1.95 3.5 2.4 3.5Q3.1 3.7 3.55 3.8 4 3.9 4.55 3.9L4.55 3.9Q5.45 3.9 6.13 3.48 6.8 3.05 7.15 1.68 7.5 0.3 7.5-2.5L7.5-2.5 7.5-30.15 3.25-32.2 3.25-33 19.3-33 19.3-32.2 15.05-30.15 15.05-12.25Q15.05-8.4 14.13-5.15 13.2-1.9 11.85 0.55 10.5 3 9.2 4.45L9.2 4.45Q7.45 6.5 6 7.58 4.55 8.65 2.9 8.65Z" opacity="1" transform="matrix(1,0,0,1,0,0)" fill="#8abe53" class="undefined-text-0" data-fill-palette-color="primary" id="text-0"></path></svg></g></svg></g></svg></g></svg></g><g></g></svg></g><defs></defs></svg><rect width="66.77070828331331" height="154.5" fill="none" stroke="none" visibility="hidden"></rect></g></svg></g></svg>