<svg xmlns="http://www.w3.org/2000/svg" version="1.1" xmlns:xlink="http://www.w3.org/1999/xlink" xmlns:svgjs="http://svgjs.dev/svgjs" width="1000" height="2775" viewBox="0 0 1000 2775"><g transform="matrix(1,0,0,1,0.549028148116804,1.1234817813765403)"><svg viewBox="0 0 89 247" data-background-color="#327348" preserveAspectRatio="xMidYMid meet" height="2775" width="1000" xmlns="http://www.w3.org/2000/svg" xmlns:xlink="http://www.w3.org/1999/xlink"><g id="tight-bounds" transform="matrix(1,0,0,1,-0.04886350518239624,-0.09999999999999432)"><svg viewBox="0 0 89.09772701036475 247.2" height="247.2" width="89.09772701036475"><g><svg viewBox="0 0 133.64320480192075 370.7906064" height="247.2" width="89.09772701036475"><g><svg viewBox="0 0 133.64320480192075 370.7906064" height="370.7906064" width="133.64320480192075"><g id="textblocktransform"><svg viewBox="0 0 133.64320480192075 370.7906064" height="370.7906064" width="133.64320480192075" id="textblock"><g><rect width="133.64320480192075" height="247.2" fill="none" stroke-width="9.018103199999999" stroke="#8abe53" data-fill-palette-color="none" data-stroke-palette-color="tertiary"></rect><rect width="133.64320480192075" height="123.5906064" y="247.2" fill="#8abe53" data-fill-palette-color="tertiary"></rect></g><g><svg viewBox="0 0 133.64320480192075 247.2" height="247.2" width="133.64320480192075"><g transform="matrix(1,0,0,1,23.607599999999998,23.607599999999998)"><svg width="86.42800480192075" viewBox="1.3 -33 18 41.65" height="199.9848" data-palette-color="#8abe53"><path d="M2.9 8.65L2.9 8.65Q2.2 8.65 1.75 8.33 1.3 8 1.3 7.2L1.3 7.2Q1.3 6.75 1.48 5.88 1.65 5 1.95 3.5L1.95 3.5 2.4 3.5Q3.1 3.7 3.55 3.8 4 3.9 4.55 3.9L4.55 3.9Q5.45 3.9 6.13 3.48 6.8 3.05 7.15 1.68 7.5 0.3 7.5-2.5L7.5-2.5 7.5-30.15 3.25-32.2 3.25-33 19.3-33 19.3-32.2 15.05-30.15 15.05-12.25Q15.05-8.4 14.13-5.15 13.2-1.9 11.85 0.55 10.5 3 9.2 4.45L9.2 4.45Q7.45 6.5 6 7.58 4.55 8.65 2.9 8.65Z" opacity="1" transform="matrix(1,0,0,1,0,0)" fill="#8abe53" class="undefined-text-0" data-fill-palette-color="primary" id="text-0"></path></svg></g></svg></g></svg></g></svg></g><g></g></svg></g><defs></defs></svg><rect width="89.09772701036475" height="247.2" fill="none" stroke="none" visibility="hidden"></rect></g></svg></g></svg>